<?xml version="1.0" encoding="UTF-8" standalone="no"?>
<!-- Generator: Adobe Illustrator 19.0.0, SVG Export Plug-In . SVG Version: 6.00 Build 0)  -->
<svg id="Capa_1" style="enable-background:new 0 0 469.333 469.333" xmlns="http://www.w3.org/2000/svg" xml:space="preserve" viewBox="0 0 469.333 469.333" version="1.1" y="0px" x="0px" xmlns:xlink="http://www.w3.org/1999/xlink">
			<path style="fill: #616161" d="m253.23 300.27l-54.19-53.55 0.64-0.64c37.12-41.387 63.573-88.96 79.147-139.31h62.507v-42.77h-149.34v-42.667h-42.667v42.667h-149.33v42.453h238.29c-14.4 41.173-36.907 80.213-67.627 114.35-19.84-22.08-36.267-46.08-49.28-71.467h-42.66c15.573 34.773 36.907 67.627 63.573 97.28l-108.48 107.2 30.19 30.19 106.67-106.67 66.347 66.347 16.21-43.41z"/>
			<path  style="fill: #616161" d="m373.33 192h-42.667l-96 256h42.667l24-64h101.33l24 64h42.667l-96-256zm-56 149.33l34.67-92.48 34.667 92.48h-69.34z"/>
</svg>
